<svg width="274" height="66" viewBox="0 0 274 66" fill="none" xmlns="http://www.w3.org/2000/svg">
<g clip-path="url(#clip0_4_68)">
<path d="M13.9469 4.5C6.98682 4.5 1.34399 10.1967 1.34399 17.2232C1.34399 17.2232 1.34399 17.2491 1.34399 17.2975C1.3472 17.762 1.37388 18.22 1.42512 18.6716C1.72082 22.1051 3.0883 31.4088 9.40899 44.0824L11.2013 40.2372L12.6574 48.3802L14.2256 41.7072L15.3454 44.9866L17.0256 40.123L17.5861 42.9508C17.5861 42.9508 25.0052 27.9699 26.3428 19.5197C26.4645 18.8462 26.5328 18.1543 26.5456 17.4484C26.5478 17.3719 26.5488 17.2965 26.5488 17.2221C26.5499 10.1967 20.9081 4.5 13.9469 4.5ZM9.61074 22.1622C8.32867 22.1622 7.28892 20.3808 7.28892 18.1823C7.28892 15.9838 8.32867 14.2024 9.61074 14.2024C10.8928 14.2024 11.9326 15.9838 11.9326 18.1823C11.9326 20.3808 10.8928 22.1622 9.61074 22.1622ZM18.2511 22.1622C16.969 22.1622 15.9293 20.3808 15.9293 18.1823C15.9293 15.9838 16.969 14.2024 18.2511 14.2024C19.5332 14.2024 20.5729 15.9838 20.5729 18.1823C20.5729 20.3808 19.5332 22.1622 18.2511 22.1622Z" fill="white"/>
<path d="M23.0015 36.5321C22.5275 37.6324 22.0717 38.6584 21.6565 39.5755C23.6409 41.5628 24.8696 44.3173 24.8696 47.3629C24.8696 53.4216 20.005 58.3327 14.0035 58.3327C13.5424 58.3327 13.0887 58.3036 12.6424 58.2475C12.4716 58.226 12.3019 58.2001 12.1333 58.171C7.02311 57.2765 3.13633 52.7783 3.13633 47.3629C3.13633 44.8669 3.96257 42.5661 5.35353 40.7222C4.87529 39.6369 4.42267 38.5549 3.9946 37.4762C1.5244 40.026 0 43.5144 0 47.3629C0 55.1707 6.26945 61.5 14.0035 61.5C21.7376 61.5 28.007 55.1707 28.007 47.3629C28.007 43.0144 26.062 39.125 23.0026 36.5321H23.0015Z" fill="#2852A5"/>
<path d="M30.2467 7.72337C28.781 7.72337 27.5128 8.57151 26.8947 9.80869C26.8862 9.82594 26.8787 9.8421 26.8701 9.85935C28.0914 12.0352 28.7906 14.5484 28.7906 17.2232C28.7906 17.3137 28.7895 17.4053 28.7874 17.4969C28.7724 18.3063 28.6945 19.1145 28.5536 19.9023C28.417 20.7623 28.2216 21.6805 27.9825 22.6386L33.4406 13.5019C33.795 12.9232 34.0011 12.241 34.0011 11.5114C34.0011 9.41857 32.3208 7.72229 30.2477 7.72229L30.2467 7.72337Z" fill="white"/>
<path d="M21.4216 42.926C22.0739 45.437 20.89 48.8867 18.202 51.6014C15.514 54.315 12.0959 55.5113 9.60861 54.8528C10.8971 55.6266 12.3991 56.0717 14.0035 56.0717C18.7603 56.0717 22.63 52.165 22.63 47.3629C22.63 45.7431 22.1881 44.2268 21.4227 42.926H21.4216Z" fill="#2852A5"/>
</g>
<path d="M71.25 51L66.95 39.95H52.8L48.55 51H44L57.95 15.15H62L75.9 51H71.25ZM61.6 25.15C61.5 24.8833 61.3333 24.4 61.1 23.7C60.8667 23 60.6333 22.2833 60.4 21.55C60.2 20.7833 60.0333 20.2 59.9 19.8C59.7333 20.4667 59.55 21.15 59.35 21.85C59.1833 22.5167 59 23.1333 58.8 23.7C58.6333 24.2667 58.4833 24.75 58.35 25.15L54.3 35.95H65.6L61.6 25.15ZM92.9336 23.7C96.2336 23.7 98.8836 24.85 100.884 27.15C102.917 29.45 103.934 32.9167 103.934 37.55C103.934 40.5833 103.467 43.15 102.534 45.25C101.634 47.3167 100.35 48.8833 98.6836 49.95C97.0503 50.9833 95.1169 51.5 92.8836 51.5C91.5169 51.5 90.3003 51.3167 89.2336 50.95C88.1669 50.5833 87.2503 50.1167 86.4836 49.55C85.7503 48.95 85.1169 48.3 84.5836 47.6H84.2836C84.3503 48.1667 84.4169 48.8833 84.4836 49.75C84.5503 50.6167 84.5836 51.3667 84.5836 52V63H80.1836V24.2H83.7836L84.3836 27.85H84.5836C85.1169 27.0833 85.7503 26.3833 86.4836 25.75C87.2503 25.1167 88.1503 24.6167 89.1836 24.25C90.2503 23.8833 91.5003 23.7 92.9336 23.7ZM92.1336 27.4C90.3336 27.4 88.8836 27.75 87.7836 28.45C86.6836 29.1167 85.8836 30.1333 85.3836 31.5C84.8836 32.8667 84.6169 34.6 84.5836 36.7V37.55C84.5836 39.75 84.8169 41.6167 85.2836 43.15C85.7503 44.6833 86.5336 45.85 87.6336 46.65C88.7669 47.45 90.3003 47.85 92.2336 47.85C93.8669 47.85 95.2003 47.4 96.2336 46.5C97.3003 45.6 98.0836 44.3833 98.5836 42.85C99.1169 41.2833 99.3836 39.5 99.3836 37.5C99.3836 34.4333 98.7836 31.9833 97.5836 30.15C96.4169 28.3167 94.6003 27.4 92.1336 27.4ZM123.695 23.7C126.995 23.7 129.645 24.85 131.645 27.15C133.679 29.45 134.695 32.9167 134.695 37.55C134.695 40.5833 134.229 43.15 133.295 45.25C132.395 47.3167 131.112 48.8833 129.445 49.95C127.812 50.9833 125.879 51.5 123.645 51.5C122.279 51.5 121.062 51.3167 119.995 50.95C118.929 50.5833 118.012 50.1167 117.245 49.55C116.512 48.95 115.879 48.3 115.345 47.6H115.045C115.112 48.1667 115.179 48.8833 115.245 49.75C115.312 50.6167 115.345 51.3667 115.345 52V63H110.945V24.2H114.545L115.145 27.85H115.345C115.879 27.0833 116.512 26.3833 117.245 25.75C118.012 25.1167 118.912 24.6167 119.945 24.25C121.012 23.8833 122.262 23.7 123.695 23.7ZM122.895 27.4C121.095 27.4 119.645 27.75 118.545 28.45C117.445 29.1167 116.645 30.1333 116.145 31.5C115.645 32.8667 115.379 34.6 115.345 36.7V37.55C115.345 39.75 115.579 41.6167 116.045 43.15C116.512 44.6833 117.295 45.85 118.395 46.65C119.529 47.45 121.062 47.85 122.995 47.85C124.629 47.85 125.962 47.4 126.995 46.5C128.062 45.6 128.845 44.3833 129.345 42.85C129.879 41.2833 130.145 39.5 130.145 37.5C130.145 34.4333 129.545 31.9833 128.345 30.15C127.179 28.3167 125.362 27.4 122.895 27.4ZM166.254 51H161.754V19.25H150.604V15.3H177.354V19.25H166.254V51ZM192.146 23.7C192.646 23.7 193.18 23.7333 193.746 23.8C194.346 23.8333 194.863 23.9 195.296 24L194.746 28.05C194.313 27.95 193.83 27.8667 193.296 27.8C192.796 27.7333 192.313 27.7 191.846 27.7C190.813 27.7 189.83 27.9167 188.896 28.35C187.963 28.7833 187.13 29.4 186.396 30.2C185.663 30.9667 185.08 31.9 184.646 33C184.246 34.1 184.046 35.3333 184.046 36.7V51H179.646V24.2H183.246L183.746 29.1H183.946C184.513 28.1 185.196 27.2 185.996 26.4C186.796 25.5667 187.713 24.9167 188.746 24.45C189.78 23.95 190.913 23.7 192.146 23.7ZM209.474 23.75C212.741 23.75 215.158 24.4667 216.724 25.9C218.291 27.3333 219.074 29.6167 219.074 32.75V51H215.874L215.024 47.2H214.824C214.058 48.1667 213.258 48.9833 212.424 49.65C211.624 50.2833 210.691 50.75 209.624 51.05C208.591 51.35 207.324 51.5 205.824 51.5C204.224 51.5 202.774 51.2167 201.474 50.65C200.208 50.0833 199.208 49.2167 198.474 48.05C197.741 46.85 197.374 45.35 197.374 43.55C197.374 40.8833 198.424 38.8333 200.524 37.4C202.624 35.9333 205.858 35.1333 210.224 35L214.774 34.85V33.25C214.774 31.0167 214.291 29.4667 213.324 28.6C212.358 27.7333 210.991 27.3 209.224 27.3C207.824 27.3 206.491 27.5167 205.224 27.95C203.958 28.35 202.774 28.8167 201.674 29.35L200.324 26.05C201.491 25.4167 202.874 24.8833 204.474 24.45C206.074 23.9833 207.741 23.75 209.474 23.75ZM210.774 38.05C207.441 38.1833 205.124 38.7167 203.824 39.65C202.558 40.5833 201.924 41.9 201.924 43.6C201.924 45.1 202.374 46.2 203.274 46.9C204.208 47.6 205.391 47.95 206.824 47.95C209.091 47.95 210.974 47.3333 212.474 46.1C213.974 44.8333 214.724 42.9 214.724 40.3V37.9L210.774 38.05ZM238.102 51.5C235.735 51.5 233.618 51.0167 231.752 50.05C229.918 49.0833 228.468 47.5833 227.402 45.55C226.368 43.5167 225.852 40.9167 225.852 37.75C225.852 34.45 226.402 31.7667 227.502 29.7C228.602 27.6333 230.085 26.1167 231.952 25.15C233.852 24.1833 236.002 23.7 238.402 23.7C239.768 23.7 241.085 23.85 242.352 24.15C243.618 24.4167 244.652 24.75 245.452 25.15L244.102 28.8C243.302 28.5 242.368 28.2167 241.302 27.95C240.235 27.6833 239.235 27.55 238.302 27.55C236.502 27.55 235.018 27.9333 233.852 28.7C232.685 29.4667 231.818 30.6 231.252 32.1C230.685 33.6 230.402 35.4667 230.402 37.7C230.402 39.8333 230.685 41.65 231.252 43.15C231.818 44.65 232.668 45.7833 233.802 46.55C234.935 47.3167 236.352 47.7 238.052 47.7C239.518 47.7 240.802 47.55 241.902 47.25C243.035 46.95 244.068 46.5833 245.002 46.15V50.05C244.102 50.5167 243.102 50.8667 242.002 51.1C240.935 51.3667 239.635 51.5 238.102 51.5ZM255.725 32.85C255.725 33.3833 255.692 34.0833 255.625 34.95C255.592 35.8167 255.558 36.5667 255.525 37.2H255.725C255.925 36.9333 256.225 36.55 256.625 36.05C257.025 35.55 257.425 35.05 257.825 34.55C258.258 34.0167 258.625 33.5833 258.925 33.25L267.475 24.2H272.625L261.775 35.65L273.375 51H268.075L258.775 38.5L255.725 41.15V51H251.375V13H255.725V32.85Z" fill="white"/>
<defs>
<clipPath id="clip0_4_68">
<rect width="34" height="57" fill="white" transform="translate(0 4.5)"/>
</clipPath>
</defs>
</svg>
